{"glyphs":{"\u0000":{"ha":0,"x_min":0,"x_max":0,"o":""},"\r":{"ha":669,"x_min":0,"x_max":0,"o":""}," ":{"ha":669,"x_min":0,"x_max":0,"o":""},"A":{"ha":1136,"x_min":0,"x_max":0,"o":"m 450 356 b 375 361 425 358 400 360 b 319 267 357 329 339 297 b 19 8 268 185 131 8 b -71 40 -12 8 -44 19 b -115 196 -117 79 -135 139 b 232 417 -65 340 89 406 b 342 419 268 419 306 421 l 375 486 b 504 715 414 563 454 643 b 965 1089 624 892 782 1018 b 424 960 772 1092 508 1069 b 403 832 397 925 390 883 b 386 796 407 815 401 801 b 351 813 369 790 356 796 b 379 994 331 883 340 943 b 932 1144 476 1121 743 1144 b 1114 1138 1014 1144 1081 1140 b 1132 1115 1128 1138 1135 1128 l 1128 1093 l 1133 1089 b 850 431 992 888 924 665 l 846 415 b 994 440 894 421 944 431 b 1028 418 1011 443 1025 435 b 1006 385 1031 401 1022 388 b 829 358 947 374 888 364 b 811 229 818 315 811 272 b 858 81 813 171 829 118 b 857 40 868 67 868 51 b 838 31 851 33 844 31 b 818 40 831 31 824 33 b 756 228 779 88 757 154 b 771 353 756 269 761 313 b 533 350 692 347 613 346 b 513 351 526 350 519 351 l 471 354 b 450 356 464 354 457 356 m 550 683 b 419 450 500 610 458 529 l 408 426 b 403 415 407 424 404 419 b 456 411 421 414 438 413 b 536 406 482 410 508 407 b 785 410 619 401 703 403 b 788 417 786 413 786 415 l 792 433 b 794 440 793 435 794 438 l 797 447 b 1046 1058 864 663 926 867 b 550 683 846 996 676 868 m 63 76 b 313 364 175 146 247 253 b -62 176 167 364 -4 329 b -35 85 -76 136 -57 103 b 19 64 -21 72 -1 64 b 63 76 33 64 47 68 "},"B":{"ha":982,"x_min":0,"x_max":0,"o":"m 744 454 b 792 232 792 393 808 319 b 293 -154 746 -24 543 -154 b 156 -140 247 -154 201 -149 b -115 108 22 -112 -87 -14 b 14 432 -131 176 -135 306 b 32 439 19 438 26 439 b 54 428 40 439 49 436 b 49 388 64 414 61 399 b -61 121 -44 308 -83 214 b 167 -85 -37 21 54 -62 b 293 -97 208 -93 251 -97 b 738 243 518 -97 693 14 b 700 418 750 313 738 372 b 546 524 663 465 603 500 b 390 567 492 528 439 542 b 340 486 374 540 357 514 b 135 153 271 374 199 257 b 113 139 129 144 121 139 b 97 144 108 139 103 140 b 88 182 83 153 79 168 b 293 517 150 286 222 403 b 499 850 363 631 435 746 b 521 864 504 860 513 864 b 536 860 526 864 532 863 b 546 821 550 850 554 835 b 419 614 506 756 463 686 b 617 583 481 585 549 574 b 885 814 742 603 849 692 b 814 1063 911 908 882 1011 b 660 1113 776 1092 724 1108 b 406 1035 560 1118 467 1090 b 328 826 344 982 314 899 b 308 790 331 811 324 796 b 274 807 293 785 278 792 b 368 1078 253 900 289 1008 b 664 1168 442 1142 549 1175 b 847 1107 739 1164 801 1143 b 938 799 933 1042 971 914 b 647 532 900 663 785 561 b 744 454 683 513 718 486 "},"C":{"ha":628,"x_min":0,"x_max":0,"o":"m 132 13 b -96 115 49 13 -47 43 b -133 276 -132 168 -135 232 b 68 808 -131 450 -61 633 b 446 1072 163 936 282 1050 b 600 1032 511 1081 565 1067 b 619 847 651 981 646 901 b 507 731 607 824 536 731 b 486 742 500 731 492 733 b 490 781 475 754 476 769 b 569 872 521 807 551 838 b 561 992 588 910 590 963 b 453 1017 531 1022 481 1019 b -78 275 158 978 -74 538 b -50 147 -79 218 -69 176 b 132 68 -12 92 68 68 b 271 97 178 68 225 78 b 629 447 397 151 572 319 b 667 464 636 463 651 469 b 682 428 682 458 689 443 b 532 222 646 344 583 274 b 132 13 424 111 294 13 "},"D":{"ha":964,"x_min":0,"x_max":0,"o":"m 746 983 b 806 621 800 893 819 774 b 713 271 794 486 763 368 b 247 -44 622 93 453 -44 b -126 279 65 -44 -114 89 b 50 571 -135 403 -58 525 b 85 554 65 578 79 569 b 65 517 89 538 81 524 b -69 283 -18 479 -76 381 b 249 11 -58 118 92 11 b 433 57 311 11 375 26 b 750 626 643 167 731 403 b 697 956 763 767 746 874 b 485 1086 656 1026 569 1086 b 250 768 324 1086 265 899 b 219 743 249 751 236 742 b 194 774 203 744 193 757 b 243 967 203 839 215 904 b 486 1142 288 1065 375 1142 b 746 983 594 1142 696 1069 m 483 881 b 492 842 497 871 501 856 l 82 214 b 58 200 76 206 68 200 b 43 206 54 200 49 201 b 35 244 29 215 25 231 l 444 872 b 468 886 450 881 458 886 b 483 881 472 886 478 885 "},"E":{"ha":763,"x_min":0,"x_max":0,"o":"m 229 -19 b -57 154 110 -19 8 42 b -15 542 -135 288 -118 436 b 288 646 54 613 165 660 b 249 790 264 690 250 740 b 321 996 246 867 272 942 b 524 1078 372 1054 450 1086 b 663 997 582 1072 635 1042 b 689 856 688 960 697 908 b 619 708 681 801 656 750 b 601 700 614 703 608 700 b 582 710 594 700 588 703 b 582 751 569 722 571 738 b 633 864 608 783 628 824 b 617 967 639 904 633 940 b 518 1022 596 997 560 1018 b 363 958 463 1028 403 1004 b 304 792 324 915 303 854 b 365 628 307 733 328 674 b 415 608 382 622 399 615 b 426 571 431 600 435 585 b 388 558 418 556 403 551 b 244 592 347 581 290 592 b 25 503 156 592 76 554 b -8 182 -42 435 -86 314 b 229 36 60 65 153 36 b 671 428 431 36 640 233 b 701 454 674 444 685 454 b 726 424 718 453 729 440 b 229 -19 696 199 460 -19 "},"F":{"ha":949,"x_min":0,"x_max":0,"o":"m 706 1007 b 506 606 640 872 574 739 l 849 604 b 876 576 865 604 876 593 b 849 549 876 560 865 549 l 478 550 b 257 136 413 422 342 288 b 61 -10 190 17 114 -10 b 14 -1 42 -10 26 -6 b -126 210 -72 25 -135 119 b 32 358 -122 247 -100 335 b 64 335 49 361 61 351 b 39 303 65 318 56 306 b -71 204 -28 290 -65 254 b 31 51 -76 142 -29 69 b 63 47 42 49 51 47 b 208 164 115 47 165 88 b 415 550 288 304 353 431 l 158 551 b 131 579 142 551 131 563 b 158 607 131 596 142 607 l 443 606 b 647 1015 513 742 581 878 b 461 1047 583 1025 521 1036 b 178 1083 347 1069 238 1090 b 74 1000 131 1076 74 1057 b 189 864 74 940 131 872 b 294 957 244 856 276 910 b 331 976 300 972 314 981 b 349 942 346 971 354 957 b 199 807 308 826 240 807 l 181 808 b 18 1000 96 819 17 914 b 171 1139 18 1036 33 1121 b 472 1103 240 1147 347 1126 b 872 1051 600 1079 744 1051 b 1194 1244 1018 1051 1157 1086 b 1226 1269 1197 1261 1210 1271 b 1250 1238 1243 1267 1253 1254 b 874 994 1207 1046 1051 994 b 706 1007 819 994 763 1000 "},"G":{"ha":756,"x_min":0,"x_max":0,"o":"m 167 75 b -128 353 -6 75 -124 174 b 285 997 -135 594 24 840 b 578 1089 338 1028 454 1089 b 669 1076 608 1089 639 1085 b 818 907 760 1051 821 981 b 689 743 817 842 765 778 b 654 761 674 736 660 744 b 672 797 649 776 657 790 b 763 908 725 822 761 867 b 654 1024 764 957 719 1004 b 578 1033 629 1031 604 1033 b 314 949 469 1033 361 978 b -72 354 69 803 -78 575 b 168 132 -68 201 24 132 b 494 299 301 132 419 189 b 528 385 507 333 518 363 l 176 385 b 147 414 158 385 147 396 b 175 442 147 431 158 442 l 592 440 b 606 424 603 440 608 433 l 601 406 b 546 275 589 358 571 315 b 346 -239 510 181 449 24 b 310 -256 340 -254 325 -261 b 293 -219 294 -250 288 -235 b 442 164 340 -100 394 42 b 167 75 367 104 261 75 "},"H":{"ha":1001,"x_min":0,"x_max":0,"o":"m 226 175 b 29 21 154 46 78 21 b -1 25 17 21 7 22 b -131 199 -72 42 -126 115 b 6 400 -135 288 -83 361 b 42 383 21 407 36 399 b 24 347 46 368 39 354 b -75 201 -68 306 -76 232 b 11 79 -72 143 -35 90 b 178 203 67 67 126 111 b 361 544 247 326 307 439 l 338 544 l 290 543 b 263 571 274 542 263 553 b 290 599 261 588 272 599 l 336 600 l 390 600 b 547 914 444 707 496 810 b 626 1072 572 965 599 1018 b 664 1085 633 1088 649 1092 b 676 1047 679 1078 683 1063 b 597 889 649 993 622 940 b 453 600 550 793 503 699 l 911 600 l 1024 851 b 1129 1032 1050 911 1081 978 b 1304 1118 1179 1085 1243 1117 b 1329 1089 1321 1118 1331 1106 b 1297 1063 1326 1072 1314 1063 b 1075 828 1178 1051 1117 924 l 725 51 b 689 38 718 35 704 29 b 674 75 672 44 667 58 l 886 544 l 425 544 b 226 175 365 431 301 310 "},"I":{"ha":557,"x_min":0,"x_max":0,"o":"m 706 1033 b 257 163 563 740 417 447 b 61 17 190 42 114 17 b 14 24 42 17 26 19 b -126 235 -72 50 -135 144 b 32 385 -122 272 -100 360 b 64 361 49 388 61 378 b 39 329 65 344 56 332 b -71 229 -28 315 -65 281 b 31 78 -76 167 -29 96 b 64 72 42 74 53 72 b 208 189 115 72 165 113 b 640 1026 361 463 504 744 b 504 1057 597 1047 551 1057 b 222 863 381 1057 267 979 b 228 629 193 786 196 701 b 217 590 235 614 231 599 b 201 586 211 588 207 586 b 179 601 192 586 183 592 b 169 882 139 689 135 792 b 506 1114 222 1021 357 1114 b 665 1076 561 1114 615 1101 l 667 1081 b 671 1082 668 1082 669 1083 l 693 1071 b 706 1033 708 1064 713 1049 "},"J":{"ha":435,"x_min":0,"x_max":0,"o":"m -106 267 b 268 499 -44 411 113 507 b 293 468 285 497 294 485 b 261 443 290 451 278 442 b -54 244 129 449 -3 367 b -57 108 -64 219 -86 157 b 43 61 -37 75 3 61 b 271 243 151 61 218 163 b 786 1083 449 513 633 792 b 611 1078 686 1082 649 1081 b 418 1072 572 1076 532 1075 b 389 1101 400 1072 389 1083 b 417 1129 388 1118 399 1129 b 610 1135 531 1131 569 1132 b 832 1140 651 1136 696 1138 l 856 1140 b 868 1119 868 1140 874 1132 l 857 1099 b 318 213 699 790 506 496 b 42 4 253 111 174 4 b -104 79 -15 4 -72 28 b -106 267 -135 129 -135 197 "},"K":{"ha":1003,"x_min":0,"x_max":0,"o":"m 807 29 b 564 340 682 32 607 200 b 421 467 544 407 489 456 b 257 161 372 371 318 271 b 61 17 190 42 114 17 b 14 24 42 17 26 19 b -126 235 -72 50 -135 144 b 32 385 -122 272 -100 360 b 64 361 49 388 61 378 b 39 329 65 344 56 332 b -71 229 -28 315 -65 279 b 31 76 -76 167 -29 96 b 63 72 42 74 51 72 b 208 189 115 72 165 113 b 640 1026 361 463 504 744 b 504 1057 597 1047 551 1057 b 222 861 379 1057 267 979 b 228 629 193 786 196 701 b 217 590 235 614 231 599 b 201 586 211 588 207 586 b 179 601 192 586 183 592 b 169 882 139 689 135 792 b 506 1114 222 1021 358 1114 b 689 1063 567 1114 638 1097 b 700 1024 703 1054 707 1039 b 628 875 674 972 653 926 b 456 532 571 761 515 650 b 1014 1001 682 635 874 796 l 1018 1007 b 1026 1008 1019 1010 1022 1010 l 1063 982 b 1065 975 1067 981 1067 978 l 1061 969 b 507 494 921 765 729 601 b 618 357 560 465 600 417 b 808 85 669 183 738 86 b 878 113 838 83 861 93 b 915 306 918 157 921 250 b 940 339 914 322 924 335 b 971 315 957 342 969 332 b 919 75 976 261 979 142 b 810 29 893 44 854 29 "},"L":{"ha":926,"x_min":0,"x_max":0,"o":"m -47 -32 b -131 67 -103 -12 -135 26 b 18 167 -121 146 -51 167 b 206 133 81 167 151 150 b 435 606 300 281 368 446 b 550 869 471 692 508 782 b 653 1043 578 929 608 993 l 676 1069 b 803 1110 708 1106 756 1121 b 900 1021 850 1100 886 1067 b 893 819 919 954 917 881 b 697 665 858 731 781 669 b 672 693 681 664 671 676 b 701 721 672 710 685 719 b 840 840 760 729 815 775 b 846 1006 860 890 863 950 b 790 1056 838 1031 818 1050 b 719 1032 764 1061 738 1053 l 694 1006 b 600 844 656 961 628 901 b 486 583 560 760 522 669 b 260 114 421 425 353 263 b 293 100 276 108 288 103 b 422 69 333 79 378 69 b 729 331 574 69 688 192 b 764 350 733 346 747 354 b 783 317 779 346 788 332 b 422 13 735 153 601 13 b 267 51 369 13 315 26 l 229 67 b 28 -46 174 -12 97 -46 b -47 -32 1 -46 -25 -40 m -49 99 b -75 60 -65 90 -72 79 b 29 11 -75 28 4 11 b 174 85 76 11 131 31 b 17 111 124 100 65 111 b -49 99 -10 111 -32 108 "},"M":{"ha":1243,"x_min":0,"x_max":0,"o":"m 119 549 b 213 765 154 618 190 690 b 232 992 238 847 244 924 b 200 1057 226 1025 215 1047 b 154 1061 189 1065 171 1067 b 104 1029 139 1056 124 1046 b -33 586 -15 925 -69 747 b -53 551 -29 571 -37 557 b -86 569 -68 546 -82 554 b 67 1071 -129 751 -68 954 b 175 1119 99 1097 132 1119 b 294 939 272 1119 289 1015 b 544 1128 351 1021 440 1117 b 704 1044 613 1135 676 1101 b 719 994 713 1029 717 1013 b 976 1124 788 1065 882 1122 b 1113 1068 1036 1125 1083 1106 b 1138 910 1139 1032 1147 979 b 1010 543 1117 778 1063 658 b 917 319 976 471 942 396 b 897 168 903 275 888 219 b 950 90 904 138 924 104 b 975 57 964 83 975 74 b 949 32 975 40 964 29 b 843 156 893 47 854 103 b 863 336 829 221 847 286 b 958 567 889 415 924 492 b 1082 918 1013 683 1063 794 b 1068 1033 1090 972 1085 1010 b 978 1067 1046 1063 1007 1068 b 706 886 883 1065 767 988 b 388 47 658 753 440 179 b 351 35 381 32 367 28 b 338 72 336 42 331 57 b 660 925 394 217 653 893 b 654 1019 668 961 667 994 b 550 1072 633 1061 586 1076 b 281 794 432 1060 319 893 l 267 749 b 169 524 242 669 206 594 l -64 54 b -101 42 -71 39 -86 35 b -114 79 -117 49 -121 64 l 119 549 "},"N":{"ha":1019,"x_min":0,"x_max":0,"o":"m 468 135 b 600 543 465 283 536 421 b 718 926 668 678 724 799 b 633 1063 714 981 697 1051 b 544 1036 604 1067 572 1051 b 286 806 443 979 354 900 b 169 497 269 697 218 593 l -64 26 b -101 14 -71 11 -86 7 b -114 51 -117 21 -121 36 l 119 522 b 213 738 154 592 190 663 b 226 808 219 761 224 786 l 233 828 b 232 965 240 876 240 922 b 200 1031 226 999 215 1021 b 154 1035 189 1038 171 1039 b 104 1003 139 1029 124 1019 b -33 560 -15 899 -69 721 b -53 525 -29 544 -37 531 b -86 543 -68 519 -82 528 b 67 1044 -129 725 -68 928 b 175 1093 97 1071 133 1093 b 231 1076 196 1093 215 1088 b 294 906 285 1043 292 964 b 517 1086 357 976 433 1039 b 642 1118 553 1106 594 1125 b 774 929 733 1106 768 1010 b 649 518 781 788 721 658 b 524 136 586 396 522 269 b 626 24 526 68 551 24 b 800 211 728 24 793 117 b 776 349 803 254 794 301 b 792 388 771 365 775 379 b 828 372 807 394 821 389 b 856 208 849 317 860 260 b 628 -32 849 85 758 -32 b 468 135 525 -32 468 31 "},"O":{"ha":933,"x_min":0,"x_max":0,"o":"m 997 608 b 543 253 971 399 736 271 b 178 13 457 128 339 13 b 14 68 121 13 63 29 b -121 404 -85 149 -110 285 b -89 717 -131 503 -135 618 b 63 900 -54 793 6 850 b 404 1143 128 1031 254 1132 b 468 1138 424 1144 444 1143 b 744 671 663 1096 789 882 l 742 658 b 594 331 713 535 651 424 l 585 315 b 940 611 738 340 915 447 b 971 638 943 628 954 639 b 997 608 988 636 999 625 m 513 307 b 546 360 524 325 535 343 b 688 671 601 449 660 554 l 689 682 b 457 1083 728 864 621 1047 b 408 1088 439 1088 422 1089 b 117 883 285 1079 171 993 l 122 878 b 119 875 121 876 119 876 l 111 868 b 108 865 111 868 110 867 b 64 642 76 797 60 719 b 257 358 67 503 132 417 b 513 307 339 321 425 303 m 178 68 b 472 251 304 68 403 156 b 233 308 392 253 310 272 b 7 639 86 375 13 478 b 21 782 6 688 10 735 b -39 693 -3 754 -24 725 b -65 410 -78 606 -75 501 b 178 68 -54 261 -7 68 "},"P":{"ha":967,"x_min":0,"x_max":0,"o":"m 14 22 b -126 233 -72 49 -135 143 b 32 383 -122 271 -100 358 b 64 360 49 386 61 376 b 39 328 65 343 56 331 b -71 228 -28 314 -65 279 b 31 76 -76 165 -29 94 b 64 71 42 72 53 71 b 208 188 115 71 165 111 b 656 1057 367 472 513 764 b 693 1069 663 1072 678 1076 b 706 1032 708 1063 713 1047 b 453 525 622 863 539 693 b 625 456 492 482 557 457 b 933 688 761 456 894 556 b 881 1018 946 731 975 917 b 688 1088 836 1064 772 1088 b 532 1067 642 1088 589 1081 b 360 947 461 1051 399 1007 b 332 775 326 894 317 831 b 317 739 336 760 332 746 b 281 751 301 731 286 736 b 313 978 257 824 268 910 b 686 1143 396 1104 543 1143 b 921 1056 788 1143 865 1114 b 988 671 1032 939 1006 733 b 625 400 942 517 786 400 b 425 474 549 400 475 428 b 257 161 375 375 319 274 b 61 15 190 40 114 15 b 14 22 42 15 26 18 "},"Q":{"ha":990,"x_min":0,"x_max":0,"o":"m 785 -135 b 753 -158 782 -151 769 -161 b 410 57 553 -125 458 -40 b 244 29 364 43 304 29 b 4 174 139 29 46 69 b 47 589 -33 264 -22 469 b 174 686 79 646 124 679 b 290 656 219 692 258 682 b 408 294 378 588 396 418 b 421 199 413 257 415 222 b 440 126 426 174 432 149 l 458 135 b 729 632 607 200 718 404 b 546 1049 738 825 669 981 b 344 1097 488 1082 417 1097 b 42 994 236 1097 124 1061 b -72 744 -31 933 -78 831 b -10 618 -69 707 -57 657 b -3 578 3 607 7 592 b -25 564 -8 569 -17 564 b -42 571 -31 564 -36 567 b -128 740 -93 611 -124 671 b 7 1038 -135 846 -81 965 b 346 1153 97 1113 224 1153 b 574 1097 426 1153 507 1135 b 785 629 715 1019 794 844 b 481 83 774 382 649 157 b 463 76 476 81 469 79 b 761 -103 517 -24 608 -78 b 785 -135 778 -106 788 -118 m 256 613 b 194 632 238 628 218 632 l 186 631 b 182 631 185 631 183 631 b 96 561 149 626 119 603 b 56 194 36 460 24 272 b 243 85 88 114 163 85 b 388 108 290 85 342 94 b 353 289 365 167 360 226 b 256 613 342 403 325 558 "},"R":{"ha":1019,"x_min":0,"x_max":0,"o":"m 569 410 b 421 454 518 415 467 431 b 257 151 371 360 318 260 b 61 6 190 32 114 6 b 22 11 46 6 33 8 b 6 15 17 11 11 14 b -126 224 -76 46 -135 138 b 32 374 -122 263 -100 350 b 64 350 49 376 61 367 b 39 318 65 333 56 321 b -71 219 -28 304 -65 269 b 31 67 -76 157 -29 85 b 63 61 42 64 51 61 b 208 179 115 61 165 101 b 578 890 360 450 465 664 b 656 1049 603 940 629 993 b 693 1061 664 1064 678 1068 b 706 1024 708 1054 714 1039 b 628 865 679 968 653 915 b 447 504 568 744 510 628 b 681 465 518 468 600 454 b 993 736 826 489 954 592 b 911 1029 1025 847 990 967 b 731 1086 867 1063 806 1082 b 432 997 614 1093 506 1061 b 342 746 358 932 324 832 b 324 710 346 731 339 715 b 289 726 308 704 293 711 b 396 1039 263 833 304 958 b 733 1143 479 1113 603 1150 b 944 1074 821 1138 892 1114 b 1047 721 1043 999 1085 853 b 950 549 1029 657 996 597 b 636 406 863 454 761 415 b 733 165 685 335 710 249 b 838 -79 758 75 783 -11 b 1039 -190 888 -140 961 -181 b 1065 -222 1056 -193 1067 -204 b 1036 -247 1064 -239 1053 -250 b 794 -115 943 -236 854 -187 b 679 150 732 -37 706 58 b 568 408 653 247 629 340 "},"S":{"ha":824,"x_min":0,"x_max":0,"o":"m 182 -15 b -64 135 75 -15 -14 38 b -78 414 -135 268 -111 360 b 338 581 -14 517 140 578 b 365 553 354 581 365 569 b 338 525 365 536 354 525 b -31 383 161 521 22 469 b -15 160 -67 325 -61 249 b 221 43 49 39 160 35 b 514 289 360 61 488 169 b 424 601 536 390 482 493 b 381 1051 344 749 264 899 b 644 1176 432 1117 540 1176 b 844 1040 732 1176 821 1129 b 785 800 860 976 840 897 b 763 785 779 790 771 785 b 747 790 757 785 753 786 b 738 828 732 799 728 814 b 790 1026 785 913 801 976 b 644 1121 775 1090 706 1121 b 425 1017 558 1121 467 1069 b 472 628 331 893 399 765 b 569 278 533 515 596 399 b 229 -12 538 136 389 10 b 182 -15 213 -14 197 -15 "},"T":{"ha":706,"x_min":0,"x_max":0,"o":"m 871 1035 b 1194 1229 1017 1035 1157 1071 b 1226 1254 1197 1246 1210 1256 b 1250 1222 1243 1251 1253 1239 b 872 979 1208 1031 1051 979 b 706 992 818 979 763 985 b 257 121 563 699 417 406 b 61 -25 190 0 114 -25 b 14 -18 42 -25 26 -21 b -126 193 -72 8 -135 104 b 32 343 -122 231 -100 318 b 64 319 49 346 61 336 b 39 288 65 303 56 290 b -71 188 -28 274 -65 239 b 31 36 -76 125 -29 54 b 63 31 42 33 51 31 b 208 147 115 31 165 71 b 578 858 360 419 465 633 b 647 999 600 904 624 951 b 461 1032 583 1008 521 1021 b 178 1067 347 1054 238 1075 b 74 985 131 1061 74 1042 b 189 847 74 925 131 856 b 294 942 244 840 276 894 b 331 961 300 957 314 965 b 349 926 346 956 354 942 b 199 792 308 811 240 792 l 190 792 b 172 793 185 792 176 792 b 18 985 90 811 17 900 b 171 1122 18 1019 33 1106 b 472 1088 240 1132 347 1111 b 871 1035 599 1063 744 1035 "},"U":{"ha":889,"x_min":0,"x_max":0,"o":"m 606 571 b 513 356 571 501 535 431 b 493 128 486 272 481 196 b 525 63 499 94 510 72 b 569 58 536 56 553 54 b 621 90 585 64 601 74 b 758 533 739 194 794 372 b 778 568 754 549 763 563 b 811 550 793 574 807 565 b 658 49 854 368 792 165 b 550 0 628 22 592 0 b 494 17 531 0 510 6 b 438 118 465 35 447 68 b 432 229 432 153 429 190 b 103 14 369 157 208 14 l 83 15 b -49 204 -10 28 -44 122 b 75 615 -56 346 4 474 b 201 997 139 736 203 863 b 132 1104 200 1046 186 1093 b 99 1108 121 1107 110 1108 b -75 921 -6 1108 -68 1017 b -51 783 -78 878 -69 831 b -67 746 -46 767 -50 753 b -103 760 -82 738 -96 743 b -131 925 -124 815 -135 872 b 97 1165 -124 1049 -33 1165 b 257 997 201 1165 254 1100 b 125 589 260 850 188 711 b 7 207 57 456 1 335 b 29 117 10 169 17 140 b 92 69 44 92 68 74 b 181 96 121 65 153 81 b 451 344 288 157 382 242 l 458 371 b 554 596 483 451 519 525 l 789 1067 b 826 1079 796 1082 811 1086 b 839 1042 842 1072 846 1057 l 606 571 "},"V":{"ha":960,"x_min":0,"x_max":0,"o":"m 739 857 b 993 1117 801 963 878 1092 b 1024 1093 1010 1121 1022 1110 b 999 1060 1024 1076 1014 1065 b 786 828 910 1035 842 921 b 746 764 772 806 758 782 b 646 604 725 731 689 672 b 235 29 372 163 283 46 b 210 31 228 26 217 28 b 196 42 204 33 199 36 b 217 344 175 69 183 139 b 208 1033 253 576 322 1008 b -31 836 113 1054 11 950 b 1 600 -61 754 -65 653 b 13 560 15 589 19 575 b -10 544 7 550 -1 544 b -25 550 -15 544 -19 546 b -83 854 -107 608 -131 725 b 182 1092 -39 976 65 1092 b 221 1088 196 1092 208 1090 b 272 335 374 1054 335 728 b 240 99 257 246 242 146 b 599 633 314 174 503 479 b 700 794 642 703 678 761 l 739 857 "},"W":{"ha":1150,"x_min":0,"x_max":0,"o":"m 1192 803 b 1531 1092 1263 936 1358 1092 b 1585 1085 1549 1092 1567 1089 b 1601 1050 1601 1079 1607 1065 b 1564 1032 1594 1033 1581 1028 b 1376 971 1497 1046 1424 1014 b 1242 776 1318 919 1279 847 l 1235 764 b 808 100 1110 533 967 310 b 683 17 776 57 740 17 b 589 139 611 17 589 75 b 629 576 589 236 604 422 b 233 28 369 158 283 44 b 210 31 226 26 217 26 b 196 42 204 33 199 36 b 217 343 175 69 183 139 b 208 1033 253 576 322 1008 b -31 835 111 1054 11 949 b 3 599 -61 754 -65 653 b 11 560 15 588 19 574 b -11 544 7 550 -1 544 b -25 549 -15 544 -21 546 b -83 854 -107 608 -131 725 b 182 1092 -39 976 65 1092 b 221 1088 196 1092 208 1090 b 272 335 374 1054 335 726 b 240 99 257 246 242 146 b 599 633 314 174 503 479 b 663 736 622 671 644 707 l 665 742 b 669 750 665 744 668 747 l 700 794 b 739 857 711 813 725 833 b 993 1117 801 961 878 1090 b 1024 1093 1010 1121 1022 1110 b 999 1060 1024 1076 1014 1065 b 786 828 910 1035 842 921 l 746 763 b 714 713 738 750 726 733 b 646 139 674 561 646 271 b 660 81 646 115 647 92 b 683 72 665 75 674 72 b 711 79 693 72 703 75 b 764 133 731 90 746 110 b 1185 790 919 342 1061 563 l 1192 803 "},"X":{"ha":867,"x_min":0,"x_max":0,"o":"m 925 1068 b 906 1033 929 1053 921 1039 b 439 633 767 985 560 849 b 701 86 493 413 567 163 b 717 47 715 78 722 63 b 681 33 710 32 694 25 b 401 554 536 110 457 336 b 393 535 399 549 396 542 b 392 532 393 533 392 532 l 389 524 b 388 521 389 524 388 522 b -97 44 317 344 85 99 b -129 65 -112 39 -126 49 b -108 99 -132 81 -124 93 b 338 549 44 150 272 375 b 381 640 350 581 364 611 b 358 732 372 671 365 701 b 294 971 336 832 317 919 b 214 1053 285 993 260 1046 b 88 983 158 1063 107 1008 b -22 694 22 903 -17 800 b -51 667 -22 678 -33 667 b -79 693 -68 665 -79 676 b 44 1019 -74 813 -31 928 b 224 1108 76 1058 142 1122 b 346 993 293 1096 331 1031 b 414 743 369 938 390 847 l 421 711 b 890 1086 553 911 754 1039 b 925 1068 906 1092 919 1083 "},"Y":{"ha":776,"x_min":0,"x_max":0,"o":"m 453 324 b 781 1089 589 621 740 989 b 817 1104 786 1104 800 1110 b 832 1068 832 1097 838 1083 b 349 -10 775 925 499 254 b 14 -228 263 -161 117 -228 l 4 -228 b -115 -161 -54 -225 -97 -200 b -87 -14 -129 -132 -133 -83 b -67 -1 -82 -6 -75 -1 b -49 -8 -61 -1 -54 -4 b -43 -47 -35 -18 -33 -33 b -65 -137 -67 -85 -75 -117 b 7 -171 -56 -157 -29 -169 b 300 18 93 -175 222 -118 b 408 231 332 74 369 147 l 404 231 b 400 235 401 231 400 232 b 363 661 399 265 392 465 b 186 1075 324 922 260 1074 b -32 847 78 1079 -15 958 b 32 688 -39 810 -42 724 b 51 651 47 681 56 667 b 17 633 46 635 32 626 b -87 856 -64 668 -104 751 b 189 1132 -67 993 51 1138 b 418 669 297 1128 372 976 b 453 324 438 539 447 408 "},"Z":{"ha":818,"x_min":0,"x_max":0,"o":"m 378 161 l 856 79 b 879 47 872 76 882 64 b 846 24 875 31 863 21 l 368 106 b -83 97 199 135 47 153 b -122 110 -99 90 -114 94 b -111 147 -129 124 -125 139 b 735 961 228 351 486 658 l 364 981 b 111 953 282 985 188 990 b 8 793 50 924 1 857 b -11 757 11 776 6 763 b -44 772 -26 750 -40 756 b 86 1003 -65 867 3 964 b 367 1036 176 1046 282 1040 l 819 1013 b 831 990 836 1011 840 1003 l 813 968 b 47 185 593 701 350 403 b 378 161 163 197 282 176 "},"a":{"ha":554,"x_min":0,"x_max":0,"o":"m 331 69 b 536 285 403 76 493 214 b 561 299 543 294 551 299 b 576 294 565 299 571 297 b 585 256 590 285 594 269 b 336 14 485 93 410 21 l 331 14 b 317 13 326 13 321 13 b 225 111 261 15 231 60 b 46 15 179 63 115 15 b -99 128 -22 15 -81 63 b -32 383 -118 203 -92 303 b 235 590 49 493 132 590 b 385 469 310 590 372 547 l 428 544 b 451 560 433 554 442 560 b 467 556 457 560 461 558 b 476 517 481 547 485 532 l 283 176 b 294 79 279 154 275 101 b 331 69 299 74 308 67 m 47 71 b 279 292 146 71 244 214 l 324 371 b 279 526 328 389 357 497 b 233 535 264 532 249 535 b 13 349 172 535 110 482 b -44 143 -36 283 -60 200 b 47 71 -33 101 3 71 "},"b":{"ha":604,"x_min":0,"x_max":0,"o":"m 482 192 b 604 290 538 192 581 246 b 644 303 614 306 628 310 b 656 265 660 296 664 281 b 482 135 619 201 563 135 b 419 150 460 135 439 140 b 178 17 357 74 278 17 b 1 92 106 17 39 44 b -22 143 -7 104 -17 121 l -72 54 b -96 39 -78 44 -86 39 b -111 43 -101 39 -106 40 b -121 82 -125 51 -129 67 l 29 350 b 75 432 49 388 63 414 l 425 1060 b 464 1071 433 1074 449 1078 b 474 1033 478 1063 482 1047 l 199 539 b 388 596 254 576 325 608 b 496 496 436 586 472 553 b 469 225 529 414 519 318 b 453 196 465 215 458 206 b 482 192 463 193 472 192 m 176 72 b 376 185 260 72 325 122 b 358 236 365 200 360 217 b 458 417 356 307 426 386 b 376 542 451 467 432 528 b 136 418 297 557 176 458 l 125 407 b 124 406 125 407 125 407 l 124 404 b 122 403 122 404 122 403 l 79 325 b 50 268 71 308 61 290 b 46 126 29 228 13 171 b 176 72 72 93 122 72 m 415 240 b 421 251 417 244 418 247 b 449 319 433 274 442 297 b 415 240 429 292 415 264 "},"c":{"ha":564,"x_min":0,"x_max":0,"o":"m 258 85 b 565 281 357 88 490 156 b 604 293 574 296 589 300 b 615 256 619 286 624 271 b 260 29 526 104 372 32 l 253 29 b 99 104 183 29 128 56 b 151 393 72 151 58 240 b 389 579 219 507 300 569 b 589 514 479 589 554 542 b 590 476 601 504 601 488 b 553 471 578 465 563 463 b 394 524 525 493 465 532 b 199 364 324 515 258 461 b 147 132 138 264 119 181 b 258 85 172 89 228 83 "},"d":{"ha":707,"x_min":0,"x_max":0,"o":"m 351 79 b 568 275 431 57 525 199 b 606 288 576 290 590 294 b 618 250 621 281 625 265 b 369 21 568 165 478 21 b 336 26 358 21 347 22 b 243 140 278 43 249 82 b 40 17 194 79 122 17 b -111 139 -35 17 -90 68 b -62 408 -135 221 -115 329 b 193 586 28 546 118 586 b 369 443 283 586 354 538 b 710 1040 471 621 624 892 b 733 1054 715 1050 724 1054 b 749 1050 738 1054 743 1053 b 758 1013 763 1042 767 1026 b 322 244 625 781 325 250 b 306 115 311 224 288 157 b 351 79 313 99 328 86 m 40 72 b 272 293 139 72 238 215 l 315 369 b 251 519 319 392 329 489 b 193 531 232 526 213 531 b -17 378 121 531 51 479 b -57 154 -60 313 -76 221 b 40 72 -43 108 -10 72 "},"e":{"ha":506,"x_min":0,"x_max":0,"o":"m 214 65 b 507 272 364 60 454 169 b 546 286 515 288 529 293 b 558 249 561 278 567 264 b 225 10 499 133 397 10 l 213 10 b 36 82 131 13 71 36 b 6 265 0 126 -10 189 b 278 581 28 382 151 569 b 381 542 315 585 350 571 b 397 369 429 496 435 435 b 133 193 344 278 215 193 b 115 224 118 192 110 207 b 147 250 119 239 133 247 b 349 397 204 260 306 322 b 343 501 385 461 353 492 b 282 525 324 519 304 526 b 126 401 238 521 183 476 b 60 254 93 354 71 306 b 79 117 53 213 49 156 b 214 65 104 85 150 68 "},"f":{"ha":572,"x_min":0,"x_max":0,"o":"m 547 489 b 583 494 556 501 569 504 b 592 456 597 485 601 469 b 482 289 575 431 543 379 b 385 232 453 246 419 226 b 314 278 357 236 333 253 b 188 -211 325 75 281 -156 b 142 -224 178 -218 161 -224 b 57 -183 118 -224 89 -214 b 482 839 -124 -7 369 686 b 503 851 488 847 494 851 b 521 844 508 851 515 849 b 526 806 535 835 536 819 b 288 446 449 700 364 572 b 392 288 308 385 354 293 b 435 319 408 285 424 304 b 547 489 497 413 531 464 m 160 -162 b 246 376 240 -115 283 172 b 96 -143 114 143 26 -75 b 142 -168 115 -162 131 -168 b 160 -162 151 -168 157 -165 "},"g":{"ha":696,"x_min":0,"x_max":0,"o":"m 699 274 b 735 293 704 289 718 297 b 753 260 750 289 758 275 b 336 -85 707 135 569 21 b 90 -381 258 -218 165 -351 b 38 -392 68 -389 51 -392 b -7 -378 17 -392 1 -385 b -29 -304 -26 -362 -35 -336 b 183 -87 -18 -233 58 -136 b 296 -42 224 -72 261 -57 b 351 58 315 -7 335 26 b 233 15 321 36 271 15 b 82 138 160 15 103 68 b 131 408 58 221 78 329 b 386 586 221 546 311 586 b 558 464 468 586 535 546 l 592 528 b 629 540 599 543 614 547 b 642 501 644 532 649 517 l 494 219 b 385 0 485 197 442 106 b 699 274 556 86 660 179 m 233 72 b 465 293 333 72 431 214 l 508 369 b 444 518 513 392 522 489 b 386 529 425 526 406 529 b 176 378 314 529 244 479 b 136 154 133 313 117 219 b 196 79 147 118 167 93 b 233 72 208 75 221 72 m 69 -328 b 247 -122 118 -308 183 -224 b 203 -140 233 -128 218 -135 b 25 -314 93 -182 33 -267 b 28 -333 24 -325 25 -332 b 69 -328 31 -336 43 -339 "},"h":{"ha":576,"x_min":0,"x_max":0,"o":"m 375 51 b 579 275 438 78 532 206 b 603 289 586 285 594 289 b 618 285 608 289 614 288 b 626 246 632 275 636 260 b 329 -17 568 154 451 -17 b 275 4 303 -17 285 -7 b 289 190 243 38 247 100 b 319 251 297 208 308 229 b 383 458 356 318 403 410 b 343 492 378 474 365 485 b 113 336 254 513 147 388 l -72 15 b -96 1 -78 6 -86 1 b -111 6 -100 1 -106 3 b -121 43 -125 14 -129 29 l 461 1057 b 485 1071 467 1067 475 1071 b 500 1067 489 1071 494 1069 b 510 1029 514 1058 518 1043 l 214 515 b 350 549 256 540 303 556 b 369 542 356 547 364 544 b 436 479 401 528 425 507 b 369 225 464 407 414 310 b 340 167 358 204 347 183 b 315 43 303 86 307 51 b 375 51 321 38 342 38 "},"i":{"ha":307,"x_min":0,"x_max":0,"o":"m 178 654 b 229 704 178 682 200 704 b 279 654 257 704 279 682 b 229 604 279 626 257 604 b 178 654 200 604 178 626 m 347 285 b 358 246 363 276 367 261 b 118 6 296 133 210 14 b 99 7 113 6 104 6 l 94 7 b 71 11 86 8 78 10 b -15 79 31 24 1 46 b -11 242 -50 150 -14 238 l 143 550 b 181 563 150 565 165 569 b 193 525 196 556 200 540 l 39 218 b 35 104 39 218 13 151 b 96 63 46 83 65 69 b 308 272 150 50 229 128 b 347 285 317 288 332 292 "},"j":{"ha":590,"x_min":0,"x_max":0,"o":"m 504 654 b 554 704 504 682 526 704 b 604 654 582 704 604 682 b 554 603 604 626 582 603 b 504 654 526 603 504 626 m 283 -1 b 593 265 419 65 549 154 b 629 285 599 281 613 289 b 647 250 644 279 653 265 b 236 -86 590 100 410 -8 b -10 -381 158 -219 65 -351 b -62 -392 -32 -389 -49 -392 b -107 -378 -83 -392 -99 -385 b -129 -306 -126 -362 -135 -336 b 83 -87 -118 -233 -42 -136 b 196 -42 119 -74 157 -58 b 344 243 258 67 314 179 l 492 528 b 529 540 499 543 514 547 b 542 501 544 532 549 517 l 394 218 b 283 -1 385 197 342 104 m -31 -329 b 147 -124 18 -310 83 -225 l 103 -140 b -75 -314 -7 -183 -67 -267 b -72 -335 -76 -325 -75 -332 b -31 -329 -69 -336 -57 -339 "},"k":{"ha":474,"x_min":0,"x_max":0,"o":"m 476 285 b 499 297 482 293 490 297 b 515 293 504 297 510 296 b 522 253 529 283 532 267 l 443 136 b 260 14 388 57 321 14 b 222 19 247 14 233 17 b 128 164 165 38 129 93 b 64 289 126 256 79 282 l -72 46 b -96 32 -78 36 -86 32 b -111 36 -100 32 -106 33 b -121 72 -125 43 -129 58 l 422 1038 b 461 1050 431 1053 446 1057 b 472 1011 476 1042 481 1026 l 197 525 b 374 585 256 563 324 596 b 432 535 400 578 421 561 b 421 410 450 492 447 449 b 146 292 378 344 278 303 b 183 164 165 264 182 224 b 238 74 185 118 206 83 b 397 168 275 63 336 81 m 361 529 b 129 403 313 540 196 463 l 96 346 b 375 440 257 349 344 396 b 381 513 389 463 392 488 b 361 529 375 525 368 528 "},"l":{"ha":350,"x_min":0,"x_max":0,"o":"m 392 985 b 401 947 406 976 410 961 l -32 210 b -47 82 -42 189 -68 119 b 10 50 -39 64 -19 54 b 265 279 161 31 240 210 b 301 299 271 294 285 303 b 319 265 317 294 325 281 b 33 -7 279 139 179 -7 l 3 -6 b -97 56 -46 0 -79 21 b -81 238 -135 126 -86 226 l 354 975 b 376 989 360 985 368 989 b 392 985 382 989 388 988 "},"m":{"ha":785,"x_min":0,"x_max":0,"o":"m 789 274 b 811 288 794 283 803 288 b 826 283 817 288 822 286 b 836 246 840 275 844 260 l 789 164 b 589 19 785 157 701 19 b 525 35 568 19 547 25 b 536 321 439 74 489 199 b 576 525 568 400 613 511 b 385 354 508 553 426 432 l 239 47 b 201 35 231 32 217 26 b 188 71 186 42 181 56 l 314 338 b 335 381 317 344 324 360 b 361 508 354 424 372 479 b 342 525 357 517 351 521 b 58 243 274 544 135 372 l -29 51 b -68 39 -37 36 -51 31 b -81 75 -83 46 -89 60 l 142 563 b 181 576 150 578 164 583 b 193 539 196 568 201 554 l 169 486 b 357 578 231 549 299 596 b 418 506 388 569 418 539 b 557 586 458 550 506 586 b 597 578 569 586 583 583 b 589 300 685 542 636 419 b 549 85 556 217 511 103 b 586 76 561 79 574 76 b 740 193 671 76 739 192 "},"n":{"ha":579,"x_min":0,"x_max":0,"o":"m 374 76 b 582 276 399 76 488 90 b 619 290 590 292 604 297 b 632 253 635 282 640 268 b 374 19 558 104 463 19 b 256 96 322 19 278 49 b 325 300 231 151 276 224 b 397 457 360 356 401 418 b 393 472 397 463 396 468 b 325 501 383 492 344 501 b 93 333 213 501 94 336 l -72 43 b -96 28 -78 33 -86 28 b -111 32 -101 28 -106 29 b -121 71 -125 40 -129 56 l 168 581 b 192 596 174 590 182 596 b 207 592 197 596 201 594 b 217 554 221 583 225 568 l 192 510 b 325 557 232 536 278 557 b 450 481 374 557 436 532 b 372 269 467 419 419 343 b 307 119 338 215 294 147 b 374 76 319 92 344 76 "},"o":{"ha":347,"x_min":0,"x_max":0,"o":"m 417 289 b 454 301 425 304 439 308 b 467 264 469 294 475 279 b 293 133 432 199 372 133 b 225 150 269 133 246 139 b 21 -3 182 85 107 -3 b -142 119 -50 -3 -121 53 b -33 475 -168 204 -132 324 b 126 592 19 557 83 583 b 313 510 200 606 275 572 b 325 347 360 431 326 350 b 254 199 324 342 297 272 b 293 189 265 193 279 189 b 417 289 349 189 392 246 m 21 54 b 183 189 88 54 151 140 b 169 233 175 203 169 218 b 282 428 165 319 269 417 b 160 539 276 492 225 539 b 14 444 99 539 46 493 b -89 136 -74 310 -110 204 b 21 54 -75 93 -25 54 "},"p":{"ha":775,"x_min":0,"x_max":0,"o":"m 507 189 b 631 289 564 189 606 244 b 668 301 639 304 653 308 b 681 264 683 294 689 279 b 585 157 653 215 621 179 b 506 133 561 140 533 133 b 439 150 482 133 460 139 b 193 25 375 75 293 25 b -10 146 114 25 10 60 l -293 -356 b -317 -371 -299 -365 -307 -371 b -332 -367 -322 -371 -326 -369 b -342 -328 -346 -358 -350 -343 l 157 554 b 181 569 163 564 171 569 b 196 565 186 569 190 568 b 206 526 210 557 214 542 l 179 479 b 407 553 239 519 329 568 b 511 461 453 543 488 513 b 494 231 543 388 532 300 b 474 196 489 218 481 207 b 507 189 483 192 496 189 m 193 81 b 397 188 276 81 343 125 b 383 233 389 201 383 217 b 471 404 379 297 438 368 b 394 497 465 444 435 489 b 151 388 314 514 192 424 l 139 376 b 65 251 129 363 108 331 b 57 135 38 204 35 164 b 193 81 81 100 135 81 m 444 257 b 467 308 453 272 460 289 b 439 247 453 286 442 265 b 444 257 442 250 443 253 "},"q":{"ha":529,"x_min":0,"x_max":0,"o":"m 371 86 b 532 272 425 79 483 181 b 569 285 539 288 554 292 b 582 247 585 278 589 263 b 383 29 525 139 465 35 b 371 31 379 29 374 29 l 364 31 b 301 71 336 33 315 47 b 288 119 294 85 289 101 l 276 108 l 8 -365 b -15 -381 3 -375 -6 -381 b -29 -376 -19 -381 -25 -379 b -40 -337 -44 -368 -49 -353 l 176 46 b 60 22 136 31 96 22 b -114 125 -11 22 -89 54 b -7 425 -135 181 -132 278 b 254 571 78 525 165 574 b 428 492 336 568 397 522 l 458 544 b 482 558 464 554 472 558 b 497 554 486 558 492 557 b 507 515 511 546 515 531 l 375 283 b 350 99 351 222 331 132 b 371 86 353 93 358 88 m 28 81 b 232 144 85 72 167 89 l 325 308 b 329 318 326 313 328 317 l 331 318 l 400 440 b 251 515 381 461 326 514 b 36 389 182 518 108 475 b -62 144 -49 290 -83 203 b 28 81 -46 100 1 86 "},"r":{"ha":603,"x_min":0,"x_max":0,"o":"m 265 40 b 479 293 358 40 450 219 b 517 310 486 308 501 315 b 532 274 532 304 539 289 b 321 -4 506 208 426 42 b 264 -15 301 -11 283 -15 b 144 71 210 -15 157 17 b 257 383 118 165 200 303 b 185 496 211 407 192 451 b 63 274 147 432 101 349 b 25 261 56 258 40 254 b 13 299 10 268 6 283 b 196 624 78 428 169 582 b 228 644 204 638 217 644 b 249 600 247 644 261 628 b 292 429 239 564 219 460 b 311 363 317 419 329 385 b 197 86 244 271 181 150 b 265 40 206 57 236 40 "},"s":{"ha":319,"x_min":0,"x_max":0,"o":"m 228 163 b 322 282 263 199 297 240 b 360 294 331 297 344 301 b 372 257 375 288 381 272 b 199 56 326 179 251 103 b 46 -11 165 14 104 -11 b -74 44 -1 -11 -47 6 b -89 194 -100 81 -106 131 l -81 221 b -46 239 -75 236 -61 244 l -44 239 b -26 206 -28 233 -21 221 l -35 179 b -29 76 -43 149 -49 104 b 54 43 -14 57 14 46 b 167 110 104 39 140 71 b 88 289 188 163 160 225 b 4 449 29 340 1 394 b -76 293 -25 406 -51 344 b -100 279 -82 283 -90 279 b -115 283 -104 279 -110 281 b -126 321 -129 290 -133 306 b 122 583 -67 436 -17 574 b 149 556 139 585 150 572 l 149 550 b 125 528 147 536 138 528 b 101 525 117 528 108 526 b 60 446 89 514 61 485 b 125 331 58 408 81 369 b 228 163 197 267 224 208 "},"t":{"ha":250,"x_min":0,"x_max":0,"o":"m 196 158 b 207 175 200 163 204 169 l 276 282 b 300 296 282 290 290 296 b 315 290 304 296 310 294 b 324 251 329 281 333 265 l 249 136 b 24 -25 244 131 151 -25 b -101 49 -26 -25 -81 1 b -83 226 -135 124 -86 222 b 183 683 -3 364 103 544 l -29 683 b -61 706 -46 683 -61 688 b -33 733 -61 722 -50 733 l 213 733 b 308 901 260 814 294 876 b 339 919 315 914 328 919 b 364 889 356 919 371 907 b 276 733 356 872 335 833 l 504 733 b 532 706 521 733 532 722 b 508 683 532 688 525 683 l 249 683 b -35 200 189 581 96 422 b -51 72 -44 179 -69 113 b -4 36 -43 54 -28 42 b 25 32 6 33 15 32 b 196 158 107 32 176 129 "},"u":{"ha":606,"x_min":0,"x_max":0,"o":"m 442 79 b 608 274 469 68 528 114 b 646 286 617 289 631 293 b 658 249 661 279 667 264 b 451 22 582 96 514 22 b 357 93 408 22 372 54 b 347 210 343 128 343 168 b 106 32 275 113 189 32 b -7 86 51 33 13 51 b 28 318 -54 167 19 303 b 164 565 96 450 142 531 b 186 579 169 575 178 579 b 203 574 192 579 197 578 b 218 546 217 564 222 554 b 78 292 200 517 151 435 b 40 114 60 260 15 160 b 106 89 44 108 57 89 b 406 406 213 89 354 308 l 410 413 b 481 547 442 469 467 519 b 518 560 488 561 501 567 b 531 522 533 551 538 538 b 454 374 515 490 489 436 b 408 114 428 313 382 182 b 442 79 415 97 426 86 "},"v":{"ha":556,"x_min":0,"x_max":0,"o":"m 436 153 b 558 264 496 153 536 215 b 594 281 564 279 579 286 b 610 244 610 275 617 260 b 436 97 576 171 524 97 b 365 117 411 97 386 103 b 331 150 350 125 339 138 b 157 8 243 31 190 8 b 54 86 113 8 68 46 b 119 401 11 197 108 381 l 193 536 b 231 549 200 551 215 556 b 242 510 244 540 249 525 l 168 375 b 106 107 142 325 78 181 b 147 67 114 88 126 74 b 321 238 178 57 238 110 b 408 388 338 304 393 371 b 497 563 436 439 467 497 b 535 576 506 578 519 583 b 547 539 550 568 556 554 b 374 214 479 396 422 292 l 372 194 b 393 164 375 182 381 172 b 436 153 406 157 421 153 "},"w":{"ha":889,"x_min":0,"x_max":0,"o":"m 765 150 b 883 272 829 150 867 219 b 919 292 889 288 903 296 b 938 258 935 288 943 274 b 865 133 921 204 896 164 b 765 94 838 108 801 94 b 706 107 744 94 724 99 b 656 160 682 119 665 138 b 481 32 617 106 554 32 b 372 110 433 32 389 67 b 363 179 364 131 361 154 b 174 32 321 122 253 32 b 67 110 126 32 82 67 b 132 424 24 221 121 404 l 203 558 b 240 571 210 574 225 578 b 251 532 256 563 260 547 l 181 397 b 118 129 154 349 90 203 b 160 90 126 110 139 97 b 203 96 172 86 186 88 b 492 547 319 154 464 476 b 519 565 497 560 508 565 b 547 536 536 565 553 553 b 488 396 539 511 517 457 l 472 368 b 425 129 443 304 401 192 b 458 93 431 113 442 101 b 463 92 460 93 461 92 l 471 89 b 475 88 472 89 474 88 b 511 96 486 86 499 89 b 801 547 618 150 757 436 b 829 564 806 560 818 564 b 857 536 847 564 864 553 b 714 246 842 492 785 361 b 706 186 706 224 701 201 b 765 150 711 160 742 150 "},"x":{"ha":565,"x_min":0,"x_max":0,"o":"m 58 415 b 276 597 97 504 171 597 b 336 581 297 597 318 592 b 385 403 379 553 396 493 l 385 393 b 526 581 474 479 511 546 b 563 599 532 594 546 601 b 582 568 578 596 588 583 b 375 310 565 525 515 428 b 378 88 361 190 356 113 b 411 76 382 83 390 76 b 568 275 460 76 528 185 b 606 290 575 290 589 297 b 619 253 621 283 626 268 b 410 21 525 33 429 21 b 336 50 376 21 353 31 b 314 261 304 86 303 150 b 293 247 313 260 297 251 b 111 31 250 214 143 117 b 76 10 106 15 93 6 b 56 42 60 13 50 25 b 260 292 96 163 251 286 b 321 339 282 308 303 324 l 329 408 b 306 535 338 475 328 519 b 276 542 297 540 288 542 b 232 533 261 542 246 538 b 53 246 144 499 94 356 b 29 226 49 232 39 226 b -3 265 10 226 -11 246 b 58 415 7 288 26 342 "},"y":{"ha":551,"x_min":0,"x_max":0,"o":"m -75 -340 b 107 -133 -22 -319 44 -233 b 58 -153 90 -140 75 -146 b -119 -326 -51 -194 -111 -279 b -117 -346 -121 -337 -119 -344 b -75 -340 -114 -349 -101 -350 m 556 281 b 593 290 564 294 579 299 b 603 253 607 282 611 267 b 196 -94 492 72 343 -26 b -54 -393 122 -224 26 -361 b -107 -404 -76 -401 -93 -404 b -151 -390 -128 -404 -143 -397 b -174 -317 -171 -374 -179 -349 b 39 -100 -162 -246 -86 -149 b 156 -53 78 -85 117 -69 l 192 13 b 128 -1 172 4 150 -1 b 50 15 104 -1 78 4 b -33 144 -3 36 -32 82 b -3 257 -33 182 -24 221 l 149 528 b 188 539 157 543 172 547 b 197 500 201 531 206 515 l 46 229 b 22 144 31 201 22 172 b 71 68 24 106 39 81 b 271 169 138 40 196 50 b 297 217 279 185 288 199 b 468 525 365 340 439 474 b 507 536 476 539 492 543 b 517 499 521 528 525 513 b 347 189 488 444 414 313 b 318 142 338 174 328 157 b 244 -8 308 119 281 61 b 556 281 358 54 468 142 "},"z":{"ha":488,"x_min":0,"x_max":0,"o":"m 481 254 b 513 285 483 271 494 283 b 539 258 529 285 540 275 b 239 -35 532 194 489 44 b 144 -69 204 -46 172 -57 b 24 -296 142 -153 114 -242 b -67 -326 -15 -318 -44 -326 b -112 -310 -81 -326 -101 -321 b -131 -250 -128 -296 -135 -274 b 88 -35 -122 -189 -50 -103 b 60 115 85 46 60 114 l 54 128 b 61 144 51 135 54 142 l 72 150 b 299 399 203 221 290 315 b 264 492 303 436 292 468 b 201 515 242 511 221 519 b 131 447 168 510 146 475 b 50 297 115 421 86 368 b 13 285 43 282 28 278 b 0 322 -3 292 -7 307 b 94 496 56 431 94 494 b 192 571 94 497 129 560 b 301 533 228 578 265 565 b 356 393 342 499 361 449 b 119 113 344 294 256 190 b 143 -10 126 86 139 42 b 222 19 168 0 193 10 b 481 254 428 85 472 200 m -4 -247 b 85 -99 53 -212 78 -157 b -75 -258 -22 -158 -71 -222 b -75 -268 -76 -265 -75 -268 b -4 -247 -71 -271 -49 -274 "}," ":{"ha":669,"x_min":0,"x_max":0,"o":""}}}
